<?xml version="1.0" standalone="no"?>
<!DOCTYPE svg PUBLIC "-//W3C//DTD SVG 20010904//EN"
 "http://www.w3.org/TR/2001/REC-SVG-20010904/DTD/svg10.dtd">
<svg version="1.0" xmlns="http://www.w3.org/2000/svg"
 width="64px" height="64px"
 preserveAspectRatio="xMidYMid meet">

<g transform="translate(-20.000000,87.000000) scale(0.005000,-0.005000)"
fill="currentColor" stroke="none">
<path d="M12105 16826 c-69 -30 -114 -119 -94 -189 24 -89 106 -138 194 -116
146 37 165 233 29 299 -47 23 -86 25 -129 6z"/>
<path d="M12575 16296 c-68 -29 -125 -122 -125 -201 0 -37 33 -112 63 -143 82
-88 237 -81 315 13 88 108 47 276 -80 330 -45 18 -132 19 -173 1z"/>
<path d="M11850 16177 c-125 -35 -200 -133 -200 -261 0 -102 88 -219 185 -246
55 -15 149 -9 192 14 119 61 177 225 122 346 -52 115 -183 179 -299 147z"/>
<path d="M13429 15750 c-15 -9 -159 -66 -839 -332 -168 -65 -399 -157 -515
-203 -115 -46 -293 -116 -395 -155 -102 -39 -342 -133 -535 -209 -192 -76
-431 -170 -530 -209 l-180 -69 -3 -2532 -2 -2531 1412 2 1413 3 75 23 c176 55
299 130 420 258 221 235 304 525 255 896 -17 132 -48 231 -106 337 -44 79
-296 492 -529 866 -75 121 -183 297 -240 390 -57 94 -136 224 -176 289 l-74
120 0 847 0 847 51 7 c126 17 171 151 78 230 l-31 25 -682 0 -683 0 -28 -22
c-29 -23 -55 -74 -55 -109 0 -36 31 -89 63 -105 16 -9 52 -17 79 -18 l48 -1 0
-847 0 -848 -137 -220 c-75 -121 -138 -218 -140 -216 -2 2 30 93 70 202 84
223 95 258 98 294 0 14 1 363 0 776 l-1 752 -32 13 c-45 18 -118 87 -134 126
-39 91 1 221 82 273 27 16 52 30 56 30 26 0 1346 646 1696 830 l172 91 0 55
c0 29 -1 54 -2 54 -2 0 -10 -5 -19 -10z m-789 -2242 l0 -891 47 -81 c26 -45
92 -153 146 -241 818 -1322 889 -1441 911 -1530 27 -110 39 -273 26 -366 -39
-289 -205 -509 -458 -608 l-67 -26 -960 0 -960 0 -83 33 c-95 39 -205 117
-264 188 -58 70 -116 193 -144 302 -40 158 -30 413 21 536 14 34 198 340 322
536 l60 95 573 1 572 2 59 88 59 89 -575 5 -575 5 263 420 c145 231 281 447
303 480 l39 60 3 898 2 897 340 0 340 0 0 -892z"/>
<path d="M12800 11358 c-108 -31 -172 -156 -136 -266 18 -53 73 -114 119 -131
85 -32 199 3 252 77 39 57 47 149 17 209 -50 97 -149 141 -252 111z"/>
<path d="M11832 11103 c-92 -45 -116 -180 -45 -255 55 -59 125 -73 193 -38 60
30 85 73 85 145 0 47 -5 67 -23 93 -47 65 -140 90 -210 55z"/>
<path d="M12369 10817 c-60 -22 -96 -54 -123 -109 -93 -186 96 -375 283 -282
122 61 155 214 69 318 -56 68 -157 100 -229 73z"/>
<path d="M7410 15427 l0 -275 -182 73 c-141 56 -185 70 -191 60 -4 -7 -6
-1027 -5 -2266 l3 -2253 255 -98 c140 -54 347 -134 460 -177 113 -44 333 -129
490 -189 157 -61 492 -190 745 -287 1057 -408 1309 -503 1318 -498 4 2 7 1140
7 2528 l0 2524 -30 16 c-17 9 -187 76 -378 149 -302 117 -887 342 -1282 496
-69 26 -237 92 -375 145 -208 81 -779 304 -822 322 -10 4 -13 -54 -13 -270z"/>
<path d="M7990 8340 c-514 -49 -928 -341 -1149 -811 -257 -547 -214 -1260 106
-1743 80 -120 241 -287 358 -368 252 -176 578 -261 905 -238 279 20 506 107
713 272 l72 57 11 -42 c6 -23 19 -78 29 -122 9 -44 19 -88 21 -97 5 -16 21
-18 162 -18 l157 0 4 785 3 785 -551 0 -551 0 0 -200 0 -201 329 3 329 3 5
-230 4 -230 -60 -55 c-167 -153 -329 -238 -532 -281 -99 -21 -335 -16 -427 9
-180 49 -324 130 -444 248 -313 309 -417 861 -258 1367 52 163 135 300 253
417 137 136 289 218 470 255 118 24 351 17 471 -14 184 -48 383 -170 518 -317
l73 -79 154 160 153 159 -102 101 c-117 115 -224 194 -358 265 -115 61 -302
123 -428 144 -123 20 -320 27 -440 16z"/>
<path d="M10100 6758 l0 -1528 230 0 230 0 0 585 0 585 443 0 c480 0 572 7
742 56 234 67 410 189 527 365 110 166 164 417 138 646 -26 239 -91 382 -240
534 -136 137 -290 213 -533 261 -109 21 -131 22 -824 23 l-713 0 0 -1527z
m1478 1094 c222 -67 330 -179 368 -382 19 -97 14 -235 -10 -313 -51 -163 -169
-269 -368 -329 -70 -21 -92 -22 -540 -26 l-468 -3 0 541 0 541 473 -3 c452 -4
475 -5 545 -26z"/>
<path d="M13057 8283 c-4 -3 -7 -692 -7 -1530 l0 -1523 229 0 230 0 4 153 c6
266 7 2841 1 2875 l-6 32 -222 0 c-123 0 -226 -3 -229 -7z"/>
</g>
</svg>
