<?xml version="1.0" standalone="no"?>
<!DOCTYPE svg PUBLIC "-//W3C//DTD SVG 20010904//EN"
 "http://www.w3.org/TR/2001/REC-SVG-20010904/DTD/svg10.dtd">
<svg version="1.0" xmlns="http://www.w3.org/2000/svg"
 width="1024px" height="1024px" viewBox="0 0 1024.000000 1024.000000"
 preserveAspectRatio="xMidYMid meet">

<g transform="translate(-525.000000,1800.000000) scale(0.10000,-0.100000)"
fill="#000000" stroke="none">
<path d="M12105 16826 c-69 -30 -114 -119 -94 -189 24 -89 106 -138 194 -116
146 37 165 233 29 299 -47 23 -86 25 -129 6z"/>
<path d="M12575 16296 c-68 -29 -125 -122 -125 -201 0 -37 33 -112 63 -143 82
-88 237 -81 315 13 88 108 47 276 -80 330 -45 18 -132 19 -173 1z"/>
<path d="M11850 16177 c-125 -35 -200 -133 -200 -261 0 -102 88 -219 185 -246
55 -15 149 -9 192 14 119 61 177 225 122 346 -52 115 -183 179 -299 147z"/>
<path d="M13429 15750 c-15 -9 -159 -66 -839 -332 -168 -65 -399 -157 -515
-203 -115 -46 -293 -116 -395 -155 -102 -39 -342 -133 -535 -209 -192 -76
-431 -170 -530 -209 l-180 -69 -3 -2532 -2 -2531 1412 2 1413 3 75 23 c176 55
299 130 420 258 221 235 304 525 255 896 -17 132 -48 231 -106 337 -44 79
-296 492 -529 866 -75 121 -183 297 -240 390 -57 94 -136 224 -176 289 l-74
120 0 847 0 847 51 7 c126 17 171 151 78 230 l-31 25 -682 0 -683 0 -28 -22
c-29 -23 -55 -74 -55 -109 0 -36 31 -89 63 -105 16 -9 52 -17 79 -18 l48 -1 0
-847 0 -848 -137 -220 c-75 -121 -138 -218 -140 -216 -2 2 30 93 70 202 84
223 95 258 98 294 0 14 1 363 0 776 l-1 752 -32 13 c-45 18 -118 87 -134 126
-39 91 1 221 82 273 27 16 52 30 56 30 26 0 1346 646 1696 830 l172 91 0 55
c0 29 -1 54 -2 54 -2 0 -10 -5 -19 -10z m-789 -2242 l0 -891 47 -81 c26 -45
92 -153 146 -241 818 -1322 889 -1441 911 -1530 27 -110 39 -273 26 -366 -39
-289 -205 -509 -458 -608 l-67 -26 -960 0 -960 0 -83 33 c-95 39 -205 117
-264 188 -58 70 -116 193 -144 302 -40 158 -30 413 21 536 14 34 198 340 322
536 l60 95 573 1 572 2 59 88 59 89 -575 5 -575 5 263 420 c145 231 281 447
303 480 l39 60 3 898 2 897 340 0 340 0 0 -892z"/>
<path d="M12800 11358 c-108 -31 -172 -156 -136 -266 18 -53 73 -114 119 -131
85 -32 199 3 252 77 39 57 47 149 17 209 -50 97 -149 141 -252 111z"/>
<path d="M11832 11103 c-92 -45 -116 -180 -45 -255 55 -59 125 -73 193 -38 60
30 85 73 85 145 0 47 -5 67 -23 93 -47 65 -140 90 -210 55z"/>
<path d="M12369 10817 c-60 -22 -96 -54 -123 -109 -93 -186 96 -375 283 -282
122 61 155 214 69 318 -56 68 -157 100 -229 73z"/>
<path d="M7410 15427 l0 -275 -182 73 c-141 56 -185 70 -191 60 -4 -7 -6
-1027 -5 -2266 l3 -2253 255 -98 c140 -54 347 -134 460 -177 113 -44 333 -129
490 -189 157 -61 492 -190 745 -287 1057 -408 1309 -503 1318 -498 4 2 7 1140
7 2528 l0 2524 -30 16 c-17 9 -187 76 -378 149 -302 117 -887 342 -1282 496
-69 26 -237 92 -375 145 -208 81 -779 304 -822 322 -10 4 -13 -54 -13 -270z"/>
</g>
</svg>
