<svg xmlns="http://www.w3.org/2000/svg" version="1.0" viewBox="0 0 1024 1024" fill="currentColor">
  <path d="M685.5 117.4c-6.9 3-11.4 11.9-9.4 18.9a15.7 15.7 0 0 0 19.4 11.6 16 16 0 0 0 2.9-29.9 14 14 0 0 0-12.9-.6zM732.5 170.4c-6.8 2.9-12.5 12.2-12.5 20.1 0 3.7 3.3 11.2 6.3 14.3 8.2 8.8 23.7 8.1 31.5-1.3a21.5 21.5 0 0 0-8-33 28.4 28.4 0 0 0-17.3-.1zM660 182.3a26 26 0 0 0-20 26.1 28 28 0 0 0 18.5 24.6c5.5 1.5 14.9.9 19.2-1.4a27.8 27.8 0 0 0 12.2-34.6 26.1 26.1 0 0 0-29.9-14.7zM817.9 225c-1.5.9-15.9 6.6-83.9 33.2-16.8 6.5-39.9 15.7-51.5 20.3L643 294l-53.5 20.9-53 20.9-18 6.9-.3 253.2L518 849l141.2-.2 141.3-.3 7.5-2.3a90.7 90.7 0 0 0 42-25.8c22.1-23.5 30.4-52.5 25.5-89.6a89.5 89.5 0 0 0-10.6-33.7c-4.4-7.9-29.6-49.2-52.9-86.6a10638 10638 0 0 1-41.6-67.9l-7.4-12V361.2l5.1-.7c12.6-1.7 17.1-15.1 7.8-23l-3.1-2.5H636.3l-2.8 2.2a16.5 16.5 0 0 0-5.5 10.9 14 14 0 0 0 6.3 10.5c1.6.9 5.2 1.7 7.9 1.8l4.8.1V530l-13.7 22a323.8 323.8 0 0 1-14 21.6c-.2-.2 3-9.3 7-20.2 8.4-22.3 9.5-25.8 9.8-29.4v-77.6l-.1-75.2-3.2-1.3a32.7 32.7 0 0 1-13.4-12.6c-3.9-9.1.1-22.1 8.2-27.3a37 37 0 0 1 5.6-3c2.6 0 134.6-64.6 169.6-83l17.2-9.1v-5.5c0-2.9-.1-5.4-.2-5.4l-1.9 1zM739 449.2v89.1l4.7 8.1c2.6 4.5 9.2 15.3 14.6 24.1 81.8 132.2 88.9 144.1 91.1 153 2.7 11 3.9 27.3 2.6 36.6a73 73 0 0 1-45.8 60.8l-6.7 2.6h-192l-8.3-3.3a75.4 75.4 0 0 1-26.4-18.8 85.7 85.7 0 0 1-14.4-30.2c-4-15.8-3-41.3 2.1-53.6 1.4-3.4 19.8-34 32.2-53.6l6-9.5 57.3-.1 57.2-.2 5.9-8.8 5.9-8.9-57.5-.5-57.5-.5 26.3-42 30.3-48 3.9-6 .3-89.8.2-89.7h68v89.2z"/>
  <path d="M755 664.2a21.2 21.2 0 0 0-13.6 26.6 24 24 0 0 0 11.9 13.1 23 23 0 0 0 25.2-7.7 22.5 22.5 0 0 0 1.7-20.9 21 21 0 0 0-25.2-11.1zM658.2 689.7c-9.2 4.5-11.6 18-4.5 25.5 5.5 5.9 12.5 7.3 19.3 3.8 6-3 8.5-7.3 8.5-14.5 0-4.7-.5-6.7-2.3-9.3-4.7-6.5-14-9-21-5.5zM711.9 718.3c-6 2.2-9.6 5.4-12.3 10.9a20.9 20.9 0 0 0 28.3 28.2 20.6 20.6 0 0 0 6.9-31.8c-5.6-6.8-15.7-10-22.9-7.3zM216 257.3v27.5l-18.2-7.3c-14.1-5.6-18.5-7-19.1-6-.4.7-.6 102.7-.5 226.6l.3 225.3 25.5 9.8 46 17.7 49 18.9 74.5 28.7c105.7 40.8 130.9 50.3 131.8 49.8.4-.2.7-114 .7-252.8V343.1l-3-1.6c-1.7-.9-18.7-7.6-37.8-14.9C435 314.9 376.5 292.4 337 277l-37.5-14.5c-20.8-8.1-77.9-30.4-82.2-32.2-1-.4-1.3 5.4-1.3 27z"/>
</svg>