<svg xmlns="http://www.w3.org/2000/svg" version="1.0" viewBox="0 0 64 64">
  <g fill="currentColor">
    <path d="M40.525 2.87c-.345.15-.57.595-.47.945.12.445.53.69.97.58.73-.185.825-1.165.145-1.495-.235-.115-.43-.125-.645-.03zM42.875 5.52c-.34.145-.625.61-.625 1.005 0 .185.165.56.315.715.41.44 1.185.405 1.575-.065.44-.54.235-1.38-.4-1.65-.225-.09-.66-.095-.865-.005zM39.25 6.115c-.625.175-1 .665-1 1.305 0 .51.44 1.095.925 1.23.275.075.745.045.96-.07.595-.305.885-1.125.61-1.73-.26-.575-.915-.895-1.495-.735zM47.145 8.25c-.075.045-.795.33-4.195 1.66-.84.325-1.995.785-2.575 1.015-.575.23-1.465.58-1.975.775-.51.195-1.71.665-2.675 1.045-.96.38-2.155.85-2.65 1.045l-.9.345-.015 12.66-.01 12.655 7.06-.01 7.065-.015.375-.115c.88-.275 1.495-.65 2.1-1.29 1.105-1.175 1.52-2.625 1.275-4.48-.085-.66-.24-1.155-.53-1.685-.22-.395-1.48-2.46-2.645-4.33-.375-.605-.915-1.485-1.2-1.95-.285-.47-.68-1.12-.88-1.445l-.37-.6v-8.47l.255-.035c.63-.085.855-.755.39-1.15l-.155-.125h-6.825l-.14.11c-.145.115-.275.37-.275.545 0 .18.155.445.315.525.08.045.26.085.395.09l.24.005V23.5l-.685 1.1c-.375.605-.69 1.09-.7 1.08-.01-.01.15-.465.35-1.01.42-1.115.475-1.29.49-1.47 0-.07.005-1.815 0-3.88l-.005-3.76-.16-.065c-.225-.09-.59-.435-.67-.63-.195-.455.005-1.105.41-1.365.135-.08.26-.15.28-.15.13 0 6.73-3.23 8.48-4.15l.86-.455V8.47c0-.145-.005-.27-.01-.27-.01 0-.05.025-.095.05zM43.2 19.46v4.455l.235.405c.13.225.46.765.73 1.205 4.09 6.61 4.445 7.205 4.555 7.65.135.55.195 1.365.13 1.83-.195 1.445-1.025 2.545-2.29 3.04l-.335.13h-9.6l-.415-.165c-.475-.195-1.025-.585-1.32-.94-.29-.35-.58-.965-.72-1.51-.2-.79-.15-2.065.105-2.68.07-.17.99-1.7 1.61-2.68l.3-.475 2.865-.005 2.86-.01.295-.44.295-.445-2.875-.025-2.875-.025 1.315-2.1a289.222 289.222 0 0 1 1.515-2.4l.195-.3.015-4.49L39.8 15h3.4v4.46z"/>
    <path d="M44 30.21c-.54.155-.86.78-.68 1.33.09.265.365.57.595.655.425.16.995-.015 1.26-.385.195-.285.235-.745.085-1.045-.25-.485-.745-.705-1.26-.555zM39.16 31.485c-.46.225-.58.9-.225 1.275.275.295.625.365.965.19.3-.15.425-.365.425-.725 0-.235-.025-.335-.115-.465-.235-.325-.7-.45-1.05-.275zM41.845 32.915c-.3.11-.48.27-.615.545-.465.93.48 1.875 1.415 1.41a1.03 1.03 0 0 0 .345-1.59c-.28-.34-.785-.5-1.145-.365zM17.05 9.865v1.375l-.91-.365c-.705-.28-.925-.35-.955-.3-.02.035-.03 5.135-.025 11.33l.015 11.265 1.275.49c.7.27 1.735.67 2.3.885.565.22 1.665.645 2.45.945.785.305 2.46.95 3.725 1.435 5.285 2.04 6.545 2.515 6.59 2.49.02-.01.035-5.7.035-12.64v-12.62l-.15-.08c-.085-.045-.935-.38-1.89-.745-1.51-.585-4.435-1.71-6.41-2.48-.345-.13-1.185-.46-1.875-.725-1.04-.405-3.895-1.52-4.11-1.61-.05-.02-.065.27-.065 1.35zM19.95 45.3c-2.57.245-4.64 1.705-5.745 4.055-1.285 2.735-1.07 6.3.53 8.715.4.6 1.205 1.435 1.79 1.84 1.26.88 2.89 1.305 4.525 1.19 1.395-.1 2.53-.535 3.565-1.36l.36-.285.055.21c.03.115.095.39.145.61.045.22.095.44.105.485.025.08.105.09.81.09h.785l.02-3.925L26.91 53H21.4v2.005l1.645-.015 1.645-.015.025 1.15.02 1.15-.3.275c-.835.765-1.645 1.19-2.66 1.405-.495.105-1.675.08-2.135-.045-.9-.245-1.62-.65-2.22-1.24-1.565-1.545-2.085-4.305-1.29-6.835.26-.815.675-1.5 1.265-2.085.685-.68 1.445-1.09 2.35-1.275.59-.12 1.755-.085 2.355.07.92.24 1.915.85 2.59 1.585l.365.395.77-.8.765-.795-.51-.505a7.31 7.31 0 0 0-1.79-1.325c-.575-.305-1.51-.615-2.14-.72-.615-.1-1.6-.135-2.2-.08zM30.5 53.21v7.64h2.3V55h2.215c2.4 0 2.86-.035 3.71-.28 1.17-.335 2.05-.945 2.635-1.825.55-.83.82-2.085.69-3.23-.13-1.195-.455-1.91-1.2-2.67-.68-.685-1.45-1.065-2.665-1.305-.545-.105-.655-.11-4.12-.115H30.5v7.635zm7.39-5.47c1.11.335 1.65.895 1.84 1.91.095.485.07 1.175-.05 1.565-.255.815-.845 1.345-1.84 1.645-.35.105-.46.11-2.7.13l-2.34.015v-5.41l2.365.015c2.26.02 2.375.025 2.725.13zM45.285 45.585c-.02.015-.035 3.46-.035 7.65v7.615h2.295l.02-.765c.03-1.33.035-14.205.005-14.375l-.03-.16h-1.11c-.615 0-1.13.015-1.145.035z"/>
  </g>
</svg>